<svg id="Layer_1" data-name="Layer 1" xmlns="http://www.w3.org/2000/svg" viewBox="0 0 350 75"><defs><style>.cls-1{fill:#50d6fe;}</style></defs><ellipse class="cls-1" cx="56.98" cy="51.15" rx="34.61" ry="4.86"/><ellipse class="cls-1" cx="56.92" cy="30.85" rx="34.61" ry="4.86"/><ellipse class="cls-1" cx="56.92" cy="10.59" rx="34.61" ry="4.86"/><path class="cls-1" d="M109,4.89h18.58A31.83,31.83,0,0,1,136.3,6a14.43,14.43,0,0,1,5.77,3,11.74,11.74,0,0,1,3.06,4.19,13,13,0,0,1,1,5.06,9.82,9.82,0,0,1-1.69,5.72,18.48,18.48,0,0,1-5,4.7c3.62,1.9,6,3.81,7.26,5.76a12.74,12.74,0,0,1,1.84,6.92,12.8,12.8,0,0,1-5.28,10.53q-5.27,4.11-15.59,4.11H109Zm18.58,6.56H116.66V26.17h10.93c3.41,0,6-.62,7.72-1.86s2.6-3.22,2.6-5.94a5.82,5.82,0,0,0-2.72-5.1Q132.48,11.46,127.59,11.45Zm0,20.91H116.66v17h10.93a18.4,18.4,0,0,0,8.94-2,6.34,6.34,0,0,0,3.67-5.86,7.6,7.6,0,0,0-3.59-6.82A16.46,16.46,0,0,0,127.59,32.36Z"/><path class="cls-1" d="M158.05,24.31a20.44,20.44,0,0,1,28,0,18.2,18.2,0,0,1,0,26.74,20.44,20.44,0,0,1-28,0,18.2,18.2,0,0,1,0-26.74Zm22.66,4.63a11.27,11.27,0,0,0-8.64-3.5,11.52,11.52,0,0,0-8.71,3.5A12.11,12.11,0,0,0,160,37.68a12.11,12.11,0,0,0,3.36,8.74,11.56,11.56,0,0,0,8.71,3.5,11.31,11.31,0,0,0,8.64-3.5A12.26,12.26,0,0,0,184,37.68,12.26,12.26,0,0,0,180.71,28.94Z"/><path class="cls-1" d="M200.85,24.31a20.44,20.44,0,0,1,28.05,0,18.2,18.2,0,0,1,0,26.74,20.44,20.44,0,0,1-28.05,0,18.2,18.2,0,0,1,0-26.74Zm22.66,4.63a11.27,11.27,0,0,0-8.63-3.5,11.53,11.53,0,0,0-8.72,3.5,12.11,12.11,0,0,0-3.36,8.74,12.11,12.11,0,0,0,3.36,8.74,11.56,11.56,0,0,0,8.72,3.5,11.3,11.3,0,0,0,8.63-3.5,12.26,12.26,0,0,0,3.29-8.74A12.26,12.26,0,0,0,223.51,28.94Z"/><path class="cls-1" d="M239.33,1.25H247V37.39l17.5-17.93h9.17L257.3,36,274,55.89h-9.48L252.25,41.1,247,46.64v9.25h-7.65Z"/><path class="cls-1" d="M276,55.89V1.25h7.64V55.89Z"/><path class="cls-1" d="M318.45,19.54l7.26.07V39.79q-.07,13.92-.23,18.8a17.8,17.8,0,0,1-1.11,5.83,16.62,16.62,0,0,1-3.21,5.21,15.08,15.08,0,0,1-6,3.89,24.9,24.9,0,0,1-8.9,1.46,24.12,24.12,0,0,1-5.43-.62,22,22,0,0,1-4.51-1.49c-1.22-.58-2.32-1.17-3.29-1.75a16.77,16.77,0,0,1-2.14-1.46l-.69-.65,5.2-5c.41.34,1,.74,1.65,1.21a24.42,24.42,0,0,0,3.82,1.85A13.43,13.43,0,0,0,306,68.28h.23a15.06,15.06,0,0,0,8.56-2.37q3.29-2.3,3.28-7.25V53a13.1,13.1,0,0,1-4.7,2.77,17.51,17.51,0,0,1-5.92,1c-.87,0-1.68,0-2.45-.11a30.44,30.44,0,0,1-3-.48,17.29,17.29,0,0,1-3.44-1,14.28,14.28,0,0,1-3.24-2,13.5,13.5,0,0,1-2.87-3,14.88,14.88,0,0,1-1.95-4.4,22.21,22.21,0,0,1-.76-6.05V19.61h7.64v18q0,6.41,3,9.61a9.38,9.38,0,0,0,7.11,3.21q11,0,11-12.82Z"/></svg>